<?xml version="1.0" encoding="UTF-8" standalone="no"?>
<!DOCTYPE svg PUBLIC "-//W3C//DTD SVG 1.1//EN"
 "http://www.w3.org/Graphics/SVG/1.1/DTD/svg11.dtd">
<!-- Generated by graphviz version 8.0.5 (0)
 -->
<!-- Title: G Pages: 1 -->
<svg width="948pt" height="516pt"
 viewBox="0.00 0.00 947.75 516.01" xmlns="http://www.w3.org/2000/svg" xmlns:xlink="http://www.w3.org/1999/xlink">
<g id="graph0" class="graph" transform="scale(1 1) rotate(0) translate(4 512.01)">
<title>G</title>
<polygon fill="white" stroke="none" points="-4,4 -4,-512.01 943.75,-512.01 943.75,4 -4,4"/>
<!-- s -->
<g id="node1" class="node">
<title>s</title>
<ellipse fill="black" stroke="black" cx="75.88" cy="-84.26" rx="18" ry="18"/>
<text text-anchor="middle" x="75.88" y="-78.83" font-family="Arial" font-size="14.00">s</text>
</g>
<!-- InitialState -->
<g id="node2" class="node">
<title>InitialState</title>
<polygon fill="#ffbb33" stroke="red" points="267.75,-102.26 188.75,-102.26 188.75,-66.26 267.75,-66.26 267.75,-102.26"/>
<text text-anchor="middle" x="228.25" y="-78.83" font-family="Arial" font-size="14.00">InitialState</text>
</g>
<!-- s&#45;&gt;InitialState -->
<g id="edge1" class="edge">
<title>s&#45;&gt;InitialState</title>
<path fill="none" stroke="black" d="M94.12,-84.26C114.37,-84.26 148.85,-84.26 177.64,-84.26"/>
<polygon fill="black" stroke="black" points="177.35,-87.76 187.35,-84.26 177.35,-80.76 177.35,-87.76"/>
</g>
<!-- IdleState -->
<g id="node3" class="node">
<title>IdleState</title>
<polygon fill="#ffbb33" stroke="red" points="463.75,-102.26 394.5,-102.26 394.5,-66.26 463.75,-66.26 463.75,-102.26"/>
<text text-anchor="middle" x="429.12" y="-78.83" font-family="Arial" font-size="14.00">IdleState</text>
</g>
<!-- InitialState&#45;&gt;IdleState -->
<g id="edge6" class="edge">
<title>InitialState&#45;&gt;IdleState</title>
<path fill="none" stroke="blue" d="M268.07,-84.26C301.12,-84.26 348.61,-84.26 383.28,-84.26"/>
<polygon fill="blue" stroke="blue" points="383.05,-87.76 393.05,-84.26 383.05,-80.76 383.05,-87.76"/>
<text text-anchor="middle" x="331.12" y="-86.71" font-family="Arial" font-size="14.00">InitializedEvent</text>
</g>
<!-- ManualState -->
<g id="node4" class="node">
<title>ManualState</title>
<polygon fill="#ffbb33" stroke="red" points="728,-160.26 635.5,-160.26 635.5,-124.26 728,-124.26 728,-160.26"/>
<text text-anchor="middle" x="681.75" y="-136.83" font-family="Arial" font-size="14.00">ManualState</text>
</g>
<!-- IdleState&#45;&gt;ManualState -->
<g id="edge5" class="edge">
<title>IdleState&#45;&gt;ManualState</title>
<path fill="none" stroke="blue" d="M441.13,-102.59C450.19,-115.77 464.35,-132.52 481.75,-140.26 526.68,-160.21 583.14,-158.6 624.43,-153.24"/>
<polygon fill="blue" stroke="blue" points="624.71,-156.59 634.12,-151.72 623.73,-149.66 624.71,-156.59"/>
<text text-anchor="middle" x="549.62" y="-158.71" font-family="Arial" font-size="14.00">ManualMoveEvent</text>
</g>
<!-- MovingState -->
<g id="node5" class="node">
<title>MovingState</title>
<polygon fill="#ffbb33" stroke="red" points="727.62,-82.26 635.88,-82.26 635.88,-46.26 727.62,-46.26 727.62,-82.26"/>
<text text-anchor="middle" x="681.75" y="-58.83" font-family="Arial" font-size="14.00">MovingState</text>
</g>
<!-- IdleState&#45;&gt;MovingState -->
<g id="edge4" class="edge">
<title>IdleState&#45;&gt;MovingState</title>
<path fill="none" stroke="blue" d="M464.19,-81.54C505.5,-78.24 575.7,-72.64 624.95,-68.71"/>
<polygon fill="blue" stroke="blue" points="625.06,-72.13 634.75,-67.85 624.5,-65.15 625.06,-72.13"/>
<text text-anchor="middle" x="549.62" y="-81.71" font-family="Arial" font-size="14.00">StartMoveEvent</text>
</g>
<!-- ManualState&#45;&gt;IdleState -->
<g id="edge2" class="edge">
<title>ManualState&#45;&gt;IdleState</title>
<path fill="none" stroke="blue" d="M635.27,-128.97C629.32,-127.38 623.28,-125.85 617.5,-124.51 557.73,-110.59 541.46,-113.45 481.75,-99.26 479.43,-98.7 477.05,-98.11 474.66,-97.49"/>
<polygon fill="blue" stroke="blue" points="475.72,-93.89 465.15,-94.66 473.9,-100.64 475.72,-93.89"/>
<text text-anchor="middle" x="549.62" y="-126.71" font-family="Arial" font-size="14.00">ExitManualMoveEvent</text>
</g>
<!-- MovingState&#45;&gt;IdleState -->
<g id="edge7" class="edge">
<title>MovingState&#45;&gt;IdleState</title>
<path fill="none" stroke="blue" d="M635.45,-51.68C594.43,-42.43 532.78,-33.93 481.75,-49.51 474.22,-51.8 466.79,-55.61 460.02,-59.88"/>
<polygon fill="blue" stroke="blue" points="458.52,-57.35 452.25,-65.89 462.47,-63.13 458.52,-57.35"/>
<text text-anchor="middle" x="549.62" y="-51.71" font-family="Arial" font-size="14.00">MoveCompleteEvent</text>
</g>
<!-- ErrorState -->
<g id="node6" class="node">
<title>ErrorState</title>
<polygon fill="#ffbb33" stroke="red" points="939.75,-46.26 862.25,-46.26 862.25,-10.26 939.75,-10.26 939.75,-46.26"/>
<text text-anchor="middle" x="901" y="-22.83" font-family="Arial" font-size="14.00">ErrorState</text>
</g>
<!-- MovingState&#45;&gt;ErrorState -->
<g id="edge8" class="edge">
<title>MovingState&#45;&gt;ErrorState</title>
<path fill="none" stroke="blue" d="M728.03,-56.75C764.13,-50.77 814.59,-42.41 851.51,-36.29"/>
<polygon fill="blue" stroke="blue" points="851.73,-39.64 861.02,-34.55 850.59,-32.73 851.73,-39.64"/>
<text text-anchor="middle" x="795.12" y="-55.71" font-family="Arial" font-size="14.00">MoveErrorEvent</text>
</g>
<!-- ErrorState&#45;&gt;IdleState -->
<g id="edge3" class="edge">
<title>ErrorState&#45;&gt;IdleState</title>
<path fill="none" stroke="blue" d="M861.79,-19.45C785.54,-3.88 610.76,21.72 481.75,-36.26 470.58,-41.27 460.26,-49.7 451.83,-58.1"/>
<polygon fill="blue" stroke="blue" points="449.66,-55.36 445.36,-65.04 454.76,-60.16 449.66,-55.36"/>
<text text-anchor="middle" x="681.75" y="-4.71" font-family="Arial" font-size="14.00">ResetEvent</text>
</g>
<!-- ExitManualMoveEvent -->
<g id="node7" class="node">
<title>ExitManualMoveEvent</title>
<polygon fill="none" stroke="black" points="151.75,-160.01 0,-160.01 0,-120.51 151.75,-120.51 151.75,-160.01"/>
<text text-anchor="middle" x="75.88" y="-142.71" font-family="Arial" font-size="14.00">ExitManualMoveEvent</text>
<text text-anchor="middle" x="75.88" y="-126.96" font-family="Arial" font-size="14.00">[_] / _</text>
</g>
<!-- ResetEvent -->
<g id="node8" class="node">
<title>ResetEvent</title>
<polygon fill="none" stroke="black" points="118.75,-218.01 33,-218.01 33,-178.51 118.75,-178.51 118.75,-218.01"/>
<text text-anchor="middle" x="75.88" y="-200.71" font-family="Arial" font-size="14.00">ResetEvent</text>
<text text-anchor="middle" x="75.88" y="-184.96" font-family="Arial" font-size="14.00">[_] / _</text>
</g>
<!-- StartMoveEvent -->
<g id="node9" class="node">
<title>StartMoveEvent</title>
<polygon fill="none" stroke="black" points="132.25,-276.01 19.5,-276.01 19.5,-236.51 132.25,-236.51 132.25,-276.01"/>
<text text-anchor="middle" x="75.88" y="-258.71" font-family="Arial" font-size="14.00">StartMoveEvent</text>
<text text-anchor="middle" x="75.88" y="-242.96" font-family="Arial" font-size="14.00">[_] / _</text>
</g>
<!-- ManualMoveEvent -->
<g id="node10" class="node">
<title>ManualMoveEvent</title>
<polygon fill="none" stroke="black" points="140.5,-334.01 11.25,-334.01 11.25,-294.51 140.5,-294.51 140.5,-334.01"/>
<text text-anchor="middle" x="75.88" y="-316.71" font-family="Arial" font-size="14.00">ManualMoveEvent</text>
<text text-anchor="middle" x="75.88" y="-300.96" font-family="Arial" font-size="14.00">[_] / _</text>
</g>
<!-- InitializedEvent -->
<g id="node11" class="node">
<title>InitializedEvent</title>
<polygon fill="none" stroke="black" points="129.25,-392.01 22.5,-392.01 22.5,-352.51 129.25,-352.51 129.25,-392.01"/>
<text text-anchor="middle" x="75.88" y="-374.71" font-family="Arial" font-size="14.00">InitializedEvent</text>
<text text-anchor="middle" x="75.88" y="-358.96" font-family="Arial" font-size="14.00">[_] / _</text>
</g>
<!-- MoveCompleteEvent -->
<g id="node12" class="node">
<title>MoveCompleteEvent</title>
<polygon fill="none" stroke="black" points="147.25,-450.01 4.5,-450.01 4.5,-410.51 147.25,-410.51 147.25,-450.01"/>
<text text-anchor="middle" x="75.88" y="-432.71" font-family="Arial" font-size="14.00">MoveCompleteEvent</text>
<text text-anchor="middle" x="75.88" y="-416.96" font-family="Arial" font-size="14.00">[_] / _</text>
</g>
<!-- MoveErrorEvent -->
<g id="node13" class="node">
<title>MoveErrorEvent</title>
<polygon fill="none" stroke="black" points="133,-508.01 18.75,-508.01 18.75,-468.51 133,-468.51 133,-508.01"/>
<text text-anchor="middle" x="75.88" y="-490.71" font-family="Arial" font-size="14.00">MoveErrorEvent</text>
<text text-anchor="middle" x="75.88" y="-474.96" font-family="Arial" font-size="14.00">[_] / _</text>
</g>
</g>
</svg>
