<?xml version="1.0" encoding="UTF-8" standalone="no"?>
<!DOCTYPE svg PUBLIC "-//W3C//DTD SVG 1.1//EN"
 "http://www.w3.org/Graphics/SVG/1.1/DTD/svg11.dtd">
<!-- Generated by graphviz version 8.0.5 (0)
 -->
<!-- Title: G Pages: 1 -->
<svg width="929pt" height="282pt"
 viewBox="0.00 0.00 929.00 282.07" xmlns="http://www.w3.org/2000/svg" xmlns:xlink="http://www.w3.org/1999/xlink">
<g id="graph0" class="graph" transform="scale(1 1) rotate(0) translate(4 278.07)">
<title>G</title>
<polygon fill="white" stroke="none" points="-4,4 -4,-278.07 925,-278.07 925,4 -4,4"/>
<!-- s -->
<g id="node1" class="node">
<title>s</title>
<ellipse fill="black" stroke="black" cx="71.38" cy="-24.32" rx="18" ry="18"/>
<text text-anchor="middle" x="71.38" y="-18.9" font-family="Arial" font-size="14.00">s</text>
</g>
<!-- InitialState -->
<g id="node2" class="node">
<title>InitialState</title>
<polygon fill="#ffbb33" stroke="red" points="258.75,-42.32 179.75,-42.32 179.75,-6.32 258.75,-6.32 258.75,-42.32"/>
<text text-anchor="middle" x="219.25" y="-18.9" font-family="Arial" font-size="14.00">InitialState</text>
</g>
<!-- s&#45;&gt;InitialState -->
<g id="edge1" class="edge">
<title>s&#45;&gt;InitialState</title>
<path fill="none" stroke="black" d="M89.68,-24.32C108.98,-24.32 141.08,-24.32 168.38,-24.32"/>
<polygon fill="black" stroke="black" points="168.34,-27.82 178.34,-24.32 168.34,-20.82 168.34,-27.82"/>
</g>
<!-- IdleState -->
<g id="node4" class="node">
<title>IdleState</title>
<polygon fill="#ffbb33" stroke="red" points="454.75,-42.32 385.5,-42.32 385.5,-6.32 454.75,-6.32 454.75,-42.32"/>
<text text-anchor="middle" x="420.12" y="-18.9" font-family="Arial" font-size="14.00">IdleState</text>
</g>
<!-- InitialState&#45;&gt;IdleState -->
<g id="edge4" class="edge">
<title>InitialState&#45;&gt;IdleState</title>
<path fill="none" stroke="blue" d="M259.07,-24.32C292.12,-24.32 339.61,-24.32 374.28,-24.32"/>
<polygon fill="blue" stroke="blue" points="374.05,-27.82 384.05,-24.32 374.05,-20.82 374.05,-27.82"/>
<text text-anchor="middle" x="322.12" y="-26.77" font-family="Arial" font-size="14.00">InitializedEvent</text>
</g>
<!-- MovingState -->
<g id="node3" class="node">
<title>MovingState</title>
<polygon fill="#ffbb33" stroke="red" points="709.25,-42.32 617.5,-42.32 617.5,-6.32 709.25,-6.32 709.25,-42.32"/>
<text text-anchor="middle" x="663.38" y="-18.9" font-family="Arial" font-size="14.00">MovingState</text>
</g>
<!-- MovingState&#45;&gt;IdleState -->
<g id="edge3" class="edge">
<title>MovingState&#45;&gt;IdleState</title>
<path fill="none" stroke="blue" d="M617.01,-9.93C611.17,-8.55 605.23,-7.37 599.5,-6.57 543.7,1.15 528.31,2.71 472.75,-6.57 470.4,-6.97 468,-7.46 465.61,-8.02"/>
<polygon fill="blue" stroke="blue" points="464.88,-4.86 456.15,-10.86 466.72,-11.61 464.88,-4.86"/>
<text text-anchor="middle" x="536.12" y="-8.77" font-family="Arial" font-size="14.00">MoveCompleteEvent</text>
</g>
<!-- ErrorState -->
<g id="node5" class="node">
<title>ErrorState</title>
<polygon fill="#ffbb33" stroke="red" points="921,-42.32 843.5,-42.32 843.5,-6.32 921,-6.32 921,-42.32"/>
<text text-anchor="middle" x="882.25" y="-18.9" font-family="Arial" font-size="14.00">ErrorState</text>
</g>
<!-- MovingState&#45;&gt;ErrorState -->
<g id="edge2" class="edge">
<title>MovingState&#45;&gt;ErrorState</title>
<path fill="none" stroke="blue" d="M709.58,-24.32C745.46,-24.32 795.56,-24.32 832.37,-24.32"/>
<polygon fill="blue" stroke="blue" points="832.34,-27.82 842.34,-24.32 832.34,-20.82 832.34,-27.82"/>
<text text-anchor="middle" x="776.38" y="-26.77" font-family="Arial" font-size="14.00">MoveErrorEvent</text>
</g>
<!-- IdleState&#45;&gt;MovingState -->
<g id="edge5" class="edge">
<title>IdleState&#45;&gt;MovingState</title>
<path fill="none" stroke="blue" d="M455.18,-24.32C494.5,-24.32 559.76,-24.32 606.53,-24.32"/>
<polygon fill="blue" stroke="blue" points="606.41,-27.82 616.41,-24.32 606.41,-20.82 606.41,-27.82"/>
<text text-anchor="middle" x="536.12" y="-26.77" font-family="Arial" font-size="14.00">StartMoveEvent</text>
</g>
<!-- MoveErrorEvent -->
<g id="node6" class="node">
<title>MoveErrorEvent</title>
<polygon fill="none" stroke="black" points="128.5,-100.07 14.25,-100.07 14.25,-60.57 128.5,-60.57 128.5,-100.07"/>
<text text-anchor="middle" x="71.38" y="-82.77" font-family="Arial" font-size="14.00">MoveErrorEvent</text>
<text text-anchor="middle" x="71.38" y="-67.02" font-family="Arial" font-size="14.00">[_] / _</text>
</g>
<!-- MoveCompleteEvent -->
<g id="node7" class="node">
<title>MoveCompleteEvent</title>
<polygon fill="none" stroke="black" points="142.75,-158.07 0,-158.07 0,-118.57 142.75,-118.57 142.75,-158.07"/>
<text text-anchor="middle" x="71.38" y="-140.77" font-family="Arial" font-size="14.00">MoveCompleteEvent</text>
<text text-anchor="middle" x="71.38" y="-125.02" font-family="Arial" font-size="14.00">[_] / _</text>
</g>
<!-- InitializedEvent -->
<g id="node8" class="node">
<title>InitializedEvent</title>
<polygon fill="none" stroke="black" points="124.75,-216.07 18,-216.07 18,-176.57 124.75,-176.57 124.75,-216.07"/>
<text text-anchor="middle" x="71.38" y="-198.77" font-family="Arial" font-size="14.00">InitializedEvent</text>
<text text-anchor="middle" x="71.38" y="-183.02" font-family="Arial" font-size="14.00">[_] / _</text>
</g>
<!-- StartMoveEvent -->
<g id="node9" class="node">
<title>StartMoveEvent</title>
<polygon fill="none" stroke="black" points="127.75,-274.07 15,-274.07 15,-234.57 127.75,-234.57 127.75,-274.07"/>
<text text-anchor="middle" x="71.38" y="-256.77" font-family="Arial" font-size="14.00">StartMoveEvent</text>
<text text-anchor="middle" x="71.38" y="-241.02" font-family="Arial" font-size="14.00">[_] / _</text>
</g>
</g>
</svg>
