<?xml version="1.0" encoding="UTF-8" standalone="no"?>
<!DOCTYPE svg PUBLIC "-//W3C//DTD SVG 1.1//EN"
 "http://www.w3.org/Graphics/SVG/1.1/DTD/svg11.dtd">
<!-- Generated by graphviz version 8.0.5 (0)
 -->
<!-- Title: G Pages: 1 -->
<svg width="929pt" height="285pt"
 viewBox="0.00 0.00 929.00 284.65" xmlns="http://www.w3.org/2000/svg" xmlns:xlink="http://www.w3.org/1999/xlink">
<g id="graph0" class="graph" transform="scale(1 1) rotate(0) translate(4 280.65)">
<title>G</title>
<polygon fill="white" stroke="none" points="-4,4 -4,-280.65 925,-280.65 925,4 -4,4"/>
<!-- s -->
<g id="node1" class="node">
<title>s</title>
<ellipse fill="black" stroke="black" cx="71.38" cy="-26.9" rx="18" ry="18"/>
<text text-anchor="middle" x="71.38" y="-21.47" font-family="Arial" font-size="14.00">s</text>
</g>
<!-- InitialState -->
<g id="node2" class="node">
<title>InitialState</title>
<polygon fill="#ffbb33" stroke="red" points="258.75,-44.9 179.75,-44.9 179.75,-8.9 258.75,-8.9 258.75,-44.9"/>
<text text-anchor="middle" x="219.25" y="-21.47" font-family="Arial" font-size="14.00">InitialState</text>
</g>
<!-- s&#45;&gt;InitialState -->
<g id="edge1" class="edge">
<title>s&#45;&gt;InitialState</title>
<path fill="none" stroke="black" d="M89.68,-26.9C108.98,-26.9 141.08,-26.9 168.38,-26.9"/>
<polygon fill="black" stroke="black" points="168.34,-30.4 178.34,-26.9 168.34,-23.4 168.34,-30.4"/>
</g>
<!-- IdleState -->
<g id="node4" class="node">
<title>IdleState</title>
<polygon fill="#ffbb33" stroke="red" points="454.75,-44.9 385.5,-44.9 385.5,-8.9 454.75,-8.9 454.75,-44.9"/>
<text text-anchor="middle" x="420.12" y="-21.47" font-family="Arial" font-size="14.00">IdleState</text>
</g>
<!-- InitialState&#45;&gt;IdleState -->
<g id="edge2" class="edge">
<title>InitialState&#45;&gt;IdleState</title>
<path fill="none" stroke="blue" d="M259.07,-26.9C292.12,-26.9 339.61,-26.9 374.28,-26.9"/>
<polygon fill="blue" stroke="blue" points="374.05,-30.4 384.05,-26.9 374.05,-23.4 374.05,-30.4"/>
<text text-anchor="middle" x="322.12" y="-29.35" font-family="Arial" font-size="14.00">InitializedEvent</text>
</g>
<!-- ErrorState -->
<g id="node3" class="node">
<title>ErrorState</title>
<polygon fill="#ffbb33" stroke="red" points="921,-44.9 843.5,-44.9 843.5,-8.9 921,-8.9 921,-44.9"/>
<text text-anchor="middle" x="882.25" y="-21.47" font-family="Arial" font-size="14.00">ErrorState</text>
</g>
<!-- MovingState -->
<g id="node5" class="node">
<title>MovingState</title>
<polygon fill="#ffbb33" stroke="red" points="709.25,-44.9 617.5,-44.9 617.5,-8.9 709.25,-8.9 709.25,-44.9"/>
<text text-anchor="middle" x="663.38" y="-21.47" font-family="Arial" font-size="14.00">MovingState</text>
</g>
<!-- IdleState&#45;&gt;MovingState -->
<g id="edge3" class="edge">
<title>IdleState&#45;&gt;MovingState</title>
<path fill="none" stroke="blue" d="M455.18,-26.9C494.5,-26.9 559.76,-26.9 606.53,-26.9"/>
<polygon fill="blue" stroke="blue" points="606.41,-30.4 616.41,-26.9 606.41,-23.4 606.41,-30.4"/>
<text text-anchor="middle" x="536.12" y="-29.35" font-family="Arial" font-size="14.00">StartMoveEvent</text>
</g>
<!-- MovingState&#45;&gt;ErrorState -->
<g id="edge4" class="edge">
<title>MovingState&#45;&gt;ErrorState</title>
<path fill="none" stroke="blue" d="M709.58,-26.9C745.46,-26.9 795.56,-26.9 832.37,-26.9"/>
<polygon fill="blue" stroke="blue" points="832.34,-30.4 842.34,-26.9 832.34,-23.4 832.34,-30.4"/>
<text text-anchor="middle" x="776.38" y="-29.35" font-family="Arial" font-size="14.00">MoveErrorEvent</text>
</g>
<!-- MovingState&#45;&gt;IdleState -->
<g id="edge5" class="edge">
<title>MovingState&#45;&gt;IdleState</title>
<path fill="none" stroke="blue" d="M617.09,-10.89C611.23,-9.35 605.27,-8.03 599.5,-7.15 543.82,1.39 528.15,3.09 472.75,-7.15 470.37,-7.59 467.96,-8.13 465.55,-8.75"/>
<polygon fill="blue" stroke="blue" points="464.61,-5.68 456.05,-11.92 466.64,-12.38 464.61,-5.68"/>
<text text-anchor="middle" x="536.12" y="-9.35" font-family="Arial" font-size="14.00">MoveCompleteEvent</text>
</g>
<!-- InitializedEvent -->
<g id="node6" class="node">
<title>InitializedEvent</title>
<polygon fill="none" stroke="black" points="124.75,-102.65 18,-102.65 18,-63.15 124.75,-63.15 124.75,-102.65"/>
<text text-anchor="middle" x="71.38" y="-85.35" font-family="Arial" font-size="14.00">InitializedEvent</text>
<text text-anchor="middle" x="71.38" y="-69.6" font-family="Arial" font-size="14.00">[_] / _</text>
</g>
<!-- StartMoveEvent -->
<g id="node7" class="node">
<title>StartMoveEvent</title>
<polygon fill="none" stroke="black" points="127.75,-160.65 15,-160.65 15,-121.15 127.75,-121.15 127.75,-160.65"/>
<text text-anchor="middle" x="71.38" y="-143.35" font-family="Arial" font-size="14.00">StartMoveEvent</text>
<text text-anchor="middle" x="71.38" y="-127.6" font-family="Arial" font-size="14.00">[_] / _</text>
</g>
<!-- MoveErrorEvent -->
<g id="node8" class="node">
<title>MoveErrorEvent</title>
<polygon fill="none" stroke="black" points="128.5,-218.65 14.25,-218.65 14.25,-179.15 128.5,-179.15 128.5,-218.65"/>
<text text-anchor="middle" x="71.38" y="-201.35" font-family="Arial" font-size="14.00">MoveErrorEvent</text>
<text text-anchor="middle" x="71.38" y="-185.6" font-family="Arial" font-size="14.00">[_] / _</text>
</g>
<!-- MoveCompleteEvent -->
<g id="node9" class="node">
<title>MoveCompleteEvent</title>
<polygon fill="none" stroke="black" points="142.75,-276.65 0,-276.65 0,-237.15 142.75,-237.15 142.75,-276.65"/>
<text text-anchor="middle" x="71.38" y="-259.35" font-family="Arial" font-size="14.00">MoveCompleteEvent</text>
<text text-anchor="middle" x="71.38" y="-243.6" font-family="Arial" font-size="14.00">[_] / _</text>
</g>
</g>
</svg>
